<svg width="48" height="48" viewBox="0 0 48 48" fill="none" xmlns="http://www.w3.org/2000/svg">
<path fill-rule="evenodd" clip-rule="evenodd" d="M48 24C48 10.7448 37.2552 0 24 0C10.7448 0 3.33126e-05 10.7448 3.33126e-05 24C-0.0070521 28.2432 1.11626 32.4117 3.25443 36.0768L0.00963376 48L11.928 44.748C15.592 46.8844 19.7587 48.0068 24 48C37.2552 48 48 37.2552 48 24ZM24 38.7692C32.1568 38.7692 38.7692 32.1568 38.7692 24C38.7692 15.8432 32.1568 9.23077 24 9.23077C15.8432 9.23077 9.23077 15.8432 9.23077 24C9.23077 32.1568 15.8432 38.7692 24 38.7692Z" fill="#16A34A"/>
<path d="M36.3262 18.7955C39.0765 19.8789 39.6226 23.5333 37.3092 25.3735L22.3442 37.277C20.0308 39.1172 16.5929 37.7629 16.1559 34.8393L13.3297 15.9275C12.8928 13.0039 15.7846 10.7038 18.5349 11.7872L36.3262 18.7955Z" fill="#E9EDEF"/>
</svg>
