<svg width="51" height="60" viewBox="0 0 51 60" fill="none" xmlns="http://www.w3.org/2000/svg">
<path d="M6.58334 59.1667C4.97917 59.1667 3.60542 58.595 2.46209 57.4517C1.31875 56.3084 0.748061 54.9356 0.750005 53.3334V12.5H6.58334V53.3334H38.6667V59.1667H6.58334ZM18.25 47.5C16.6458 47.5 15.2721 46.9284 14.1288 45.785C12.9854 44.6417 12.4147 43.2689 12.4167 41.6667V6.66671C12.4167 5.06255 12.9883 3.6888 14.1317 2.54546C15.275 1.40213 16.6478 0.831435 18.25 0.833379H44.5C46.1042 0.833379 47.4779 1.40505 48.6213 2.54838C49.7646 3.69171 50.3353 5.06449 50.3333 6.66671V41.6667C50.3333 43.2709 49.7617 44.6446 48.6183 45.788C47.475 46.9313 46.1022 47.502 44.5 47.5H18.25Z" fill="#E2E7E9"/>
</svg>
