<svg width="60" height="60" viewBox="0 0 60 60" fill="none" xmlns="http://www.w3.org/2000/svg">
<g clip-path="url(#clip0_1412_3)">
<path d="M55.9 4.03875C53.7621 1.90083 51.1896 0.833332 48.1796 0.833332H11.7592C8.74917 0.833332 6.17667 1.90083 4.03875 4.03875C1.90083 6.17667 0.833332 8.74917 0.833332 11.7592V48.1796C0.833332 51.1896 1.90083 53.7621 4.03875 55.9C6.17667 58.0379 8.74917 59.1054 11.7592 59.1054H20.2583C20.8125 59.1054 21.2296 59.085 21.5096 59.0471C21.8354 58.9818 22.1294 58.808 22.3437 58.5542C22.6208 58.2625 22.7608 57.8396 22.7608 57.2854L22.7404 54.7042C22.7287 53.0592 22.7229 51.7583 22.7229 50.7958L21.8479 50.9475C21.2937 51.0496 20.5937 51.0933 19.745 51.0817C18.8603 51.0653 17.9785 50.9766 17.1083 50.8162C16.182 50.6452 15.31 50.2552 14.565 49.6787C13.7848 49.0885 13.2028 48.2746 12.8967 47.3454L12.5175 46.4704C12.1979 45.7802 11.7964 45.1309 11.3217 44.5367C10.7792 43.8279 10.2279 43.3496 9.67083 43.0958L9.40833 42.9063C9.22529 42.7752 9.0588 42.6224 8.9125 42.4513C8.77277 42.2924 8.65773 42.1135 8.57125 41.9204C8.49542 41.7425 8.55958 41.5967 8.76083 41.4829C8.965 41.3663 9.32958 41.3108 9.86333 41.3108L10.6217 41.4275C11.1262 41.5267 11.7533 41.83 12.4971 42.3346C13.2498 42.8477 13.8785 43.5223 14.3375 44.3092C14.9208 45.3446 15.6208 46.135 16.4433 46.6804C17.2658 47.2229 18.0942 47.4971 18.9283 47.4971C19.7625 47.4971 20.4829 47.4329 21.0925 47.3075C21.682 47.1856 22.2548 46.9937 22.7987 46.7358C23.0262 45.0442 23.6446 43.7375 24.6567 42.8275C23.3453 42.6989 22.0455 42.4708 20.7687 42.145C19.5227 41.8027 18.3244 41.3059 17.2017 40.6662C16.027 40.0267 14.9894 39.1626 14.1479 38.1229C13.34 37.1108 12.675 35.7837 12.1558 34.1417C11.6396 32.4967 11.38 30.5979 11.38 28.4483C11.38 25.3888 12.3775 22.7842 14.3754 20.6317C13.4421 18.3333 13.5296 15.7521 14.6408 12.8967C15.3758 12.6662 16.4637 12.8383 17.9046 13.4071C19.3454 13.9758 20.4012 14.4629 21.0721 14.8654C21.7429 15.2737 22.2796 15.615 22.685 15.8921C25.0562 15.2322 27.5066 14.9005 29.9679 14.9062C32.4733 14.9062 34.9 15.2358 37.2538 15.8921L38.6946 14.9821C39.8029 14.3167 40.9719 13.758 42.1858 13.3137C43.5275 12.8062 44.5483 12.6692 45.26 12.8967C46.3975 15.755 46.4967 18.3333 45.5604 20.6346C47.5583 22.7842 48.5588 25.3887 48.5588 28.4512C48.5588 30.6008 48.2992 32.5054 47.78 34.1592C47.2638 35.8158 46.5929 37.1429 45.7704 38.1433C44.9141 39.1697 43.8722 40.0255 42.6992 40.6662C41.4742 41.3487 40.2842 41.8417 39.1321 42.145C37.8554 42.4718 36.5557 42.701 35.2442 42.8304C36.5567 43.9679 37.2158 45.7617 37.2158 48.2146V57.2854C37.2158 57.7142 37.2771 58.0612 37.4054 58.3267C37.4644 58.4545 37.5485 58.5692 37.6527 58.6639C37.757 58.7586 37.8792 58.8314 38.0121 58.8779C38.2921 58.9771 38.5371 59.0413 38.7529 59.0646C38.9688 59.0938 39.2779 59.1025 39.6804 59.1025H48.1796C51.1896 59.1025 53.7621 58.035 55.9 55.8971C58.035 53.7621 59.1054 51.1867 59.1054 48.1767V11.7592C59.1054 8.74917 58.0379 6.17667 55.9 4.03875Z" fill="#03A65A"/>
</g>
<defs>
<clipPath id="clip0_1412_3">
<rect width="60" height="60" fill="white"/>
</clipPath>
</defs>
</svg>
