<svg width="32" height="32" viewBox="0 0 32 32" fill="none" xmlns="http://www.w3.org/2000/svg">
<path d="M16 2.66667C8.64002 2.66667 2.66669 8.64 2.66669 16C2.66669 23.36 8.64002 29.3333 16 29.3333C23.36 29.3333 29.3334 23.36 29.3334 16C29.3334 8.64 23.36 2.66667 16 2.66667ZM16 22.6667C15.2667 22.6667 14.6667 22.0667 14.6667 21.3333V16C14.6667 15.2667 15.2667 14.6667 16 14.6667C16.7334 14.6667 17.3334 15.2667 17.3334 16V21.3333C17.3334 22.0667 16.7334 22.6667 16 22.6667ZM17.3334 12H14.6667V9.33333H17.3334V12Z" fill="white"/>
</svg>
