<svg width="24" height="24" viewBox="0 0 24 24" fill="none" xmlns="http://www.w3.org/2000/svg">
<path fill-rule="evenodd" clip-rule="evenodd" d="M12 2C12.2652 2 12.5196 2.10536 12.7071 2.29289C12.8946 2.48043 13 2.73478 13 3V4C13 4.26522 12.8946 4.51957 12.7071 4.70711C12.5196 4.89464 12.2652 5 12 5C11.7348 5 11.4804 4.89464 11.2929 4.70711C11.1054 4.51957 11 4.26522 11 4V3C11 2.73478 11.1054 2.48043 11.2929 2.29289C11.4804 2.10536 11.7348 2 12 2ZM2 12C2 11.7348 2.10536 11.4804 2.29289 11.2929C2.48043 11.1054 2.73478 11 3 11H4C4.26522 11 4.51957 11.1054 4.70711 11.2929C4.89464 11.4804 5 11.7348 5 12C5 12.2652 4.89464 12.5196 4.70711 12.7071C4.51957 12.8946 4.26522 13 4 13H3C2.73478 13 2.48043 12.8946 2.29289 12.7071C2.10536 12.5196 2 12.2652 2 12ZM19 12C19 11.7348 19.1054 11.4804 19.2929 11.2929C19.4804 11.1054 19.7348 11 20 11H21C21.2652 11 21.5196 11.1054 21.7071 11.2929C21.8946 11.4804 22 11.7348 22 12C22 12.2652 21.8946 12.5196 21.7071 12.7071C21.5196 12.8946 21.2652 13 21 13H20C19.7348 13 19.4804 12.8946 19.2929 12.7071C19.1054 12.5196 19 12.2652 19 12ZM13 20C13 19.7348 12.8946 19.4804 12.7071 19.2929C12.5196 19.1054 12.2652 19 12 19C11.7348 19 11.4804 19.1054 11.2929 19.2929C11.1054 19.4804 11 19.7348 11 20V21C11 21.2652 11.1054 21.5196 11.2929 21.7071C11.4804 21.8946 11.7348 22 12 22C12.2652 22 12.5196 21.8946 12.7071 21.7071C12.8946 21.5196 13 21.2652 13 21V20ZM18.364 16.95C18.2718 16.8545 18.1614 16.7783 18.0394 16.7259C17.9174 16.6735 17.7862 16.6459 17.6534 16.6447C17.5206 16.6436 17.3889 16.6689 17.266 16.7192C17.1432 16.7695 17.0315 16.8437 16.9376 16.9376C16.8437 17.0315 16.7695 17.1432 16.7192 17.266C16.6689 17.3889 16.6436 17.5206 16.6447 17.6534C16.6459 17.7862 16.6735 17.9174 16.7259 18.0394C16.7783 18.1614 16.8545 18.2718 16.95 18.364L17.657 19.071C17.8456 19.2532 18.0982 19.354 18.3604 19.3517C18.6226 19.3494 18.8734 19.2442 19.0588 19.0588C19.2442 18.8734 19.3494 18.6226 19.3517 18.3604C19.354 18.0982 19.2532 17.8456 19.071 17.657L18.364 16.95ZM4.929 4.929C5.11653 4.74153 5.37084 4.63621 5.636 4.63621C5.90116 4.63621 6.15547 4.74153 6.343 4.929L7.05 5.636C7.23216 5.8246 7.33295 6.0772 7.33067 6.3394C7.3284 6.6016 7.22323 6.85241 7.03782 7.03782C6.85241 7.22323 6.6016 7.3284 6.3394 7.33067C6.0772 7.33295 5.8246 7.23216 5.636 7.05L4.929 6.343C4.74153 6.15547 4.63621 5.90116 4.63621 5.636C4.63621 5.37084 4.74153 5.11653 4.929 4.929ZM7.05 18.364C7.14551 18.2718 7.22169 18.1614 7.2741 18.0394C7.32651 17.9174 7.3541 17.7862 7.35525 17.6534C7.3564 17.5206 7.3311 17.3889 7.28082 17.266C7.23054 17.1432 7.15629 17.0315 7.0624 16.9376C6.9685 16.8437 6.85685 16.7695 6.73395 16.7192C6.61106 16.6689 6.47938 16.6436 6.3466 16.6447C6.21382 16.6459 6.0826 16.6735 5.9606 16.7259C5.83859 16.7783 5.72825 16.8545 5.636 16.95L4.929 17.657C4.83349 17.7492 4.75731 17.8596 4.7049 17.9816C4.65249 18.1036 4.6249 18.2348 4.62375 18.3676C4.6226 18.5004 4.6479 18.6321 4.69818 18.755C4.74846 18.8778 4.82271 18.9895 4.9166 19.0834C5.0105 19.1773 5.12215 19.2515 5.24505 19.3018C5.36794 19.3521 5.49962 19.3774 5.6324 19.3763C5.76518 19.3751 5.8964 19.3475 6.0184 19.2951C6.14041 19.2427 6.25075 19.1665 6.343 19.071L7.05 18.364ZM19.071 4.929C19.2585 5.11653 19.3638 5.37084 19.3638 5.636C19.3638 5.90116 19.2585 6.15547 19.071 6.343L18.364 7.05C18.2718 7.14551 18.1614 7.22169 18.0394 7.2741C17.9174 7.32651 17.7862 7.3541 17.6534 7.35525C17.5206 7.3564 17.3889 7.3311 17.266 7.28082C17.1432 7.23054 17.0315 7.15629 16.9376 7.0624C16.8437 6.9685 16.7695 6.85685 16.7192 6.73395C16.6689 6.61106 16.6436 6.47938 16.6447 6.3466C16.6459 6.21382 16.6735 6.0826 16.7259 5.9606C16.7783 5.83859 16.8545 5.72825 16.95 5.636L17.657 4.929C17.8445 4.74153 18.0988 4.63621 18.364 4.63621C18.6292 4.63621 18.8835 4.74153 19.071 4.929ZM7 12C7 10.6739 7.52678 9.40215 8.46447 8.46447C9.40215 7.52678 10.6739 7 12 7C13.3261 7 14.5979 7.52678 15.5355 8.46447C16.4732 9.40215 17 10.6739 17 12C17 13.3261 16.4732 14.5979 15.5355 15.5355C14.5979 16.4732 13.3261 17 12 17C10.6739 17 9.40215 16.4732 8.46447 15.5355C7.52678 14.5979 7 13.3261 7 12Z" fill="#D9FDD3"/>
</svg>
