<svg width="32" height="32" viewBox="0 0 32 32" fill="none" xmlns="http://www.w3.org/2000/svg">
<path d="M7.5 4H14.5C14.8978 4 15.2794 4.15804 15.5607 4.43934C15.842 4.72064 16 5.10218 16 5.5C16 5.89783 15.842 6.27936 15.5607 6.56066C15.2794 6.84197 14.8978 7 14.5 7H7.5C7.36739 7 7.24021 7.05268 7.14645 7.14645C7.05268 7.24022 7 7.36739 7 7.5V24.5C7 24.776 7.224 25 7.5 25H24.5C24.6326 25 24.7598 24.9473 24.8536 24.8536C24.9473 24.7598 25 24.6326 25 24.5V17.5C25 17.1022 25.158 16.7206 25.4393 16.4393C25.7206 16.158 26.1022 16 26.5 16C26.8978 16 27.2794 16.158 27.5607 16.4393C27.842 16.7206 28 17.1022 28 17.5V24.5C28 25.4283 27.6313 26.3185 26.9749 26.9749C26.3185 27.6313 25.4283 28 24.5 28H7.5C6.57174 28 5.6815 27.6313 5.02513 26.9749C4.36875 26.3185 4 25.4283 4 24.5V7.5C4 5.568 5.568 4 7.5 4ZM21.208 2H29.5C29.6326 2 29.7598 2.05268 29.8536 2.14645C29.9473 2.24022 30 2.36739 30 2.5V10.792C30.0002 10.891 29.9709 10.9879 29.916 11.0703C29.8611 11.1526 29.7829 11.2169 29.6915 11.2548C29.6 11.2927 29.4993 11.3026 29.4022 11.2832C29.3051 11.2639 29.2159 11.2161 29.146 11.146L26.06 8.06L18.56 15.56C18.2755 15.8248 17.8994 15.969 17.5107 15.9623C17.1221 15.9556 16.7512 15.7985 16.476 15.524C16.2015 15.2488 16.0444 14.8779 16.0377 14.4893C16.031 14.1006 16.1752 13.7245 16.44 13.44L23.94 5.94L20.854 2.854C20.7839 2.78407 20.7361 2.6949 20.7168 2.59779C20.6974 2.50068 20.7073 2.40001 20.7452 2.30854C20.7831 2.21706 20.8474 2.13891 20.9297 2.08398C21.0121 2.02905 21.109 1.99982 21.208 2Z" fill="#F1F5F9"/>
</svg>
