<svg width="62" height="62" viewBox="0 0 62 62" fill="none" xmlns="http://www.w3.org/2000/svg">
<g clip-path="url(#clip0_1412_5)">
<path fill-rule="evenodd" clip-rule="evenodd" d="M52.7014 9.27539C49.87 6.44267 46.5063 4.19795 42.8039 2.67044C39.1016 1.14294 35.1336 0.362819 31.1285 0.374999C14.3203 0.374999 0.6375 13.9895 0.630664 30.7266C0.623228 36.056 2.02806 41.2923 4.70215 45.9023L0.375 61.625L16.542 57.4045C21.0171 59.8288 26.0266 61.0977 31.1162 61.0959H31.1285C47.9353 61.0959 61.6168 47.4801 61.625 30.7443C61.6352 26.7529 60.8515 22.7993 59.3195 19.1136C57.7875 15.4279 55.5378 12.0836 52.7014 9.27539ZM31.1285 55.973H31.1176C26.5804 55.9744 22.1257 54.7602 18.2168 52.4566L17.2912 51.9098L7.69766 54.4145L10.2584 45.1053L9.65547 44.1482C7.11849 40.1317 5.77436 35.4772 5.77949 30.7266C5.77949 16.8182 17.1559 5.50195 31.1381 5.50195C37.8455 5.48997 44.283 8.14272 49.0347 12.8767C53.7864 17.6107 56.4631 24.0383 56.4762 30.7457C56.4707 44.6555 45.0998 55.973 31.1285 55.973Z" fill="black"/>
<path d="M31.1285 55.973H31.1176C26.5804 55.9744 22.1257 54.7602 18.2168 52.4566L17.2912 51.9098L7.69766 54.4145L10.2584 45.1053L9.65547 44.1482C7.11849 40.1317 5.77436 35.4772 5.77949 30.7266C5.77949 16.8182 17.1559 5.50195 31.1381 5.50195C37.8455 5.48997 44.283 8.14272 49.0347 12.8767C53.7864 17.6107 56.4631 24.0383 56.4762 30.7457C56.4707 44.6555 45.0998 55.973 31.1285 55.973Z" fill="#03A65A"/>
<path d="M31.0007 50C25.5007 50 23.9807 47.0333 24.0007 39.5C24.0007 39 23.5007 39 23.5007 39H22.5007C22.0007 39 21.996 39.3137 22.0007 39.5C22.1655 49.8054 24.6761 52.0259 31 52C37.3239 52.0259 39.8352 49.8054 40 39.5C40.0047 39.3137 40 39 39.5 39H38.5C38.5 39 38 39 38 39.5C38.02 47.0333 36.5007 50 31.0007 50Z" fill="black"/>
<rect width="18" height="18" rx="9" transform="matrix(-1 0 0 1 52 15)" fill="black"/>
<rect width="10.2" height="10.2" rx="5.1" transform="matrix(-1 0 0 1 49.6 16.8)" fill="white"/>
<rect width="3" height="3" rx="1.5" transform="matrix(-1 0 0 1 41.2 26.4)" fill="white"/>
<ellipse cx="43" cy="34" rx="4" ry="2" fill="#FFA9C4"/>
<rect width="18" height="18" rx="9" transform="matrix(-1 0 0 1 27 16)" fill="black"/>
<rect width="10.2" height="10.2" rx="5.1" transform="matrix(-1 0 0 1 24.6 17.8)" fill="white"/>
<rect width="3" height="3" rx="1.5" transform="matrix(-1 0 0 1 16.2 27.4)" fill="white"/>
<ellipse cx="18" cy="35" rx="4" ry="2" fill="#FFA9C4"/>
</g>
<defs>
<clipPath id="clip0_1412_5">
<rect width="62" height="62" fill="white"/>
</clipPath>
</defs>
</svg>
