<svg width="1200" height="1200" viewBox="0 0 1200 1200" fill="none" xmlns="http://www.w3.org/2000/svg">
<path d="M600 0C268.629 0 0 268.629 0 600C0 931.371 268.629 1200 600 1200C931.371 1200 1200 931.371 1200 600C1200 268.629 931.371 0 600 0ZM600 65.332C895.289 65.332 1134.67 304.711 1134.67 600C1134.67 895.289 895.289 1134.67 600 1134.67C304.711 1134.67 65.332 895.289 65.332 600C65.332 304.711 304.711 65.332 600 65.332ZM334.644 221.924C319.416 266.184 314.137 314.222 327.759 356.177C311.302 374.441 298.524 395.42 289.38 419.165C265.009 496.191 270.962 594.59 324.317 654.126C343.06 674.674 368.489 691.567 400.489 704.81C432.488 718.051 473.616 726.498 523.902 730.153C490.151 745.924 466.359 755.559 458.056 790.43C420.41 815.586 374.629 809.583 341.454 782.227C315.237 763.084 303.36 729.063 274.291 716.456C272.463 714.63 266.752 713.268 257.152 712.353C247.552 711.44 240.006 714.164 234.52 720.556C231.777 723.295 231.979 726.222 235.179 729.418C257.185 747.315 278.366 766.285 290.77 789.037C302.656 813.694 314.958 831.748 327.757 843.163C363.264 867.156 410.883 879.639 452.563 864.403C447.703 893.732 460.815 939.533 451.17 965.77C447.512 973.076 442.28 979.48 435.423 984.958C429.312 990.92 410.363 998.378 414.183 1007.52C416.011 1011.63 422.402 1014.15 433.372 1015.06C457.523 1014.45 481.565 1004.68 495.774 985.619C500.802 978.769 503.318 969.845 503.318 958.886V846.607C503.318 833.822 506.035 824.694 511.521 819.213C517.005 813.734 522.992 810.053 529.391 808.228V956.176C529.391 968.961 528.236 979.929 525.95 989.062C523.664 998.196 521.626 1004.6 519.798 1008.25C515.601 1015.29 507.577 1021.79 507.42 1030.15C507.42 1032.89 509.055 1034.46 512.254 1034.91C536.275 1033.87 564.143 1019.78 573.924 999.973C581.695 983.535 585.57 966.237 585.57 947.971V802.734H615.746V947.972C615.746 966.238 619.895 983.535 628.124 999.974C636.353 1016.41 650.086 1026.98 669.286 1031.54C679.343 1034.28 686.136 1035.37 689.794 1034.91C693.451 1034.45 695.085 1032.89 694.628 1030.15C692.426 1021.85 687.837 1014.75 682.982 1008.25C676.582 1000.03 673.386 982.659 673.386 956.175V808.229C679.786 810.054 685.974 813.736 691.916 819.214C697.858 824.693 700.778 833.821 700.778 846.608V958.887C700.778 969.846 703.293 978.772 708.322 985.62C723.605 1005.06 746.636 1014.92 770.723 1015.06C781.696 1014.15 788.084 1011.63 789.912 1007.52C791.74 1003.41 790.382 1000 785.81 997.264C781.238 994.525 775.529 990.44 768.67 984.959C761.813 979.48 756.58 973.075 752.923 965.771C748.819 918.662 752.819 868.163 749.482 820.532C742.893 768.553 722.885 751.453 682.978 731.543C730.521 727.89 769.611 719.167 800.239 705.469C891.797 660.985 917.114 592.211 917.5 500.026C916.056 440.696 898.93 388.94 859.858 349.294C865.342 328.29 866.978 306.427 864.692 283.596C862.406 260.765 857.577 240.191 850.262 221.926C816.438 223.752 788.088 230.561 765.229 242.434C742.372 254.307 725.919 264.391 715.864 272.61C634.848 254.217 548.121 254.107 470.428 275.32C430.68 242.803 381.41 224.688 334.644 221.924V221.924Z" fill="#00A796"/>
</svg>
